<svg width="72" height="72" viewBox="0 0 72 72" fill="none" xmlns="http://www.w3.org/2000/svg">
<g clip-path="url(#clip0_196_168)">
<path d="M67.1945 13.8055C66.6788 13.2897 65.9793 13 65.25 13H6.75C6.02065 13 5.32118 13.2897 4.80546 13.8055C4.28973 14.3212 4 15.0207 4 15.75V56.25C4 56.9793 4.28973 57.6788 4.80546 58.1945C5.32118 58.7103 6.02066 59 6.75 59H65.25C65.9793 59 66.6788 58.7103 67.1945 58.1945C67.7103 57.6788 68 56.9793 68 56.25V15.75C68 15.0207 67.7103 14.3212 67.1945 13.8055ZM2.33058 11.3306C3.50268 10.1585 5.0924 9.5 6.75 9.5H65.25C66.9076 9.5 68.4973 10.1585 69.6694 11.3306C70.8415 12.5027 71.5 14.0924 71.5 15.75V56.25C71.5 57.9076 70.8415 59.4973 69.6694 60.6694C68.4973 61.8415 66.9076 62.5 65.25 62.5H6.75C5.0924 62.5 3.50268 61.8415 2.33058 60.6694C1.15848 59.4973 0.5 57.9076 0.5 56.25V15.75C0.5 14.0924 1.15848 12.5027 2.33058 11.3306Z" fill="#1A1A1A" stroke="#1A1A1A"/>
<path d="M24.414 21.2602L24.4149 21.2611C24.5778 21.4237 24.7071 21.6168 24.7953 21.8294C24.8836 22.042 24.929 22.2699 24.929 22.5001C24.929 22.7303 24.8836 22.9582 24.7953 23.1708C24.7071 23.3834 24.5778 23.5766 24.4149 23.7391L24.4144 23.7396L17.6644 30.4896L17.664 30.49C17.5014 30.653 17.3083 30.7823 17.0957 30.8705C16.8831 30.9587 16.6551 31.0041 16.425 31.0041C16.1948 31.0041 15.9669 30.9587 15.7542 30.8705C15.5416 30.7823 15.3485 30.653 15.186 30.49L15.1855 30.4896L12.9355 28.2396C12.7727 28.0768 12.6436 27.8836 12.5555 27.6709C12.4675 27.4582 12.4221 27.2303 12.4221 27.0001C12.4221 26.5352 12.6068 26.0894 12.9355 25.7607C13.2642 25.4319 13.7101 25.2473 14.175 25.2473C14.6396 25.2473 15.0851 25.4317 15.4138 25.7601C15.414 25.7603 15.4142 25.7605 15.4144 25.7607L16.0702 26.421L16.4239 26.7771L16.7787 26.422L21.9357 21.2605L21.936 21.2602C22.0985 21.0972 22.2916 20.9679 22.5042 20.8797C22.7169 20.7915 22.9448 20.7461 23.175 20.7461C23.4051 20.7461 23.6331 20.7915 23.8457 20.8797L24.0373 20.4179L23.8457 20.8797C24.0583 20.9679 24.2514 21.0972 24.414 21.2602ZM24.414 39.2602L24.4149 39.2611C24.5778 39.4237 24.7071 39.6168 24.7953 39.8294C24.8836 40.042 24.929 40.2699 24.929 40.5001C24.929 40.7303 24.8836 40.9582 24.7953 41.1708C24.7071 41.3834 24.5778 41.5766 24.4149 41.7391L24.4144 41.7396L17.6644 48.4896L17.664 48.49C17.5014 48.653 17.3083 48.7823 17.0957 48.8705C16.8831 48.9587 16.6551 49.0041 16.425 49.0041C16.1948 49.0041 15.9669 48.9587 15.7542 48.8705C15.5416 48.7823 15.3485 48.653 15.186 48.49L15.1855 48.4896L12.9355 46.2396C12.7727 46.0768 12.6436 45.8836 12.5555 45.6709C12.4675 45.4582 12.4221 45.2303 12.4221 45.0001C12.4221 44.7699 12.4675 44.542 12.5555 44.3293C12.6436 44.1167 12.7727 43.9234 12.9355 43.7607C13.0983 43.5979 13.2915 43.4688 13.5042 43.3807C13.7168 43.2926 13.9448 43.2473 14.175 43.2473C14.4052 43.2473 14.6331 43.2926 14.8457 43.3807C15.0582 43.4687 15.2513 43.5977 15.414 43.7602C15.4141 43.7604 15.4143 43.7605 15.4144 43.7607L16.0702 44.421L16.4239 44.7771L16.7787 44.422L21.9357 39.2605L21.936 39.2602C22.0985 39.0972 22.2916 38.968 22.5042 38.8797C22.7169 38.7915 22.9448 38.7461 23.175 38.7461C23.4051 38.7461 23.6331 38.7915 23.8457 38.8797C24.0583 38.968 24.2514 39.0972 24.414 39.2602ZM32 24.7501C32 24.286 32.1843 23.8409 32.5125 23.5127C32.8407 23.1845 33.2858 23.0001 33.75 23.0001H56.25C56.7141 23.0001 57.1592 23.1845 57.4874 23.5127C57.8156 23.8409 58 24.286 58 24.7501C58 25.2142 57.8156 25.6594 57.4874 25.9876C57.1592 26.3157 56.7141 26.5001 56.25 26.5001H33.75C33.2858 26.5001 32.8407 26.3157 32.5125 25.9876C32.1843 25.6594 32 25.2142 32 24.7501ZM32 42.7501C32 42.286 32.1843 41.8409 32.5125 41.5127C32.8407 41.1845 33.2858 41.0001 33.75 41.0001H56.25C56.7141 41.0001 57.1592 41.1845 57.4874 41.5127C57.8156 41.8409 58 42.286 58 42.7501C58 43.2142 57.8156 43.6594 57.4874 43.9876C57.1592 44.3157 56.7141 44.5001 56.25 44.5001H33.75C33.2858 44.5001 32.8407 44.3157 32.5125 43.9876C32.1843 43.6594 32 43.2142 32 42.7501Z" fill="#1A1A1A" stroke="#1A1A1A"/>
</g>
<defs>
<clipPath id="clip0_196_168">
<rect width="72" height="72" fill="white"/>
</clipPath>
</defs>
</svg>
