<svg width="133" height="90" viewBox="0 0 133 90" fill="none" xmlns="http://www.w3.org/2000/svg">
<path d="M110.5 17.5H120.5V27.5H110.5V17.5ZM110.5 32.5H120.5V42.5H110.5V32.5ZM95.5 17.5H105.5V27.5H95.5V17.5ZM95.5 32.5H105.5V42.5H95.5V32.5Z" fill="#1A1A1A"/>
<path d="M89.25 65C91.3211 65 93 63.3211 93 61.25C93 59.1789 91.3211 57.5 89.25 57.5C87.1789 57.5 85.5 59.1789 85.5 61.25C85.5 63.3211 87.1789 65 89.25 65Z" fill="#1A1A1A"/>
<path d="M105.5 75H73C71.6743 74.9987 70.4033 74.4715 69.4659 73.5341C68.5285 72.5967 68.0013 71.3257 68 70V10C68.0013 8.67432 68.5285 7.40332 69.4659 6.46593C70.4033 5.52853 71.6743 5.00132 73 5H105.5V10H73V70H105.5V50H110.5V70C110.499 71.3257 109.971 72.5967 109.034 73.5341C108.097 74.4715 106.826 74.9987 105.5 75Z" fill="#1A1A1A"/>
<path d="M48 21H24C19.02 21 15 25.02 15 30V78C15 82.98 19.02 87 24 87H48C52.98 87 57 82.98 57 78V30C57 25.02 52.98 21 48 21ZM42 81H30V78H42V81ZM51.75 72H20.25V30H51.75V72Z" fill="#1A1A1A" fill-opacity="0.8"/>
</svg>
