<svg width="58" height="58" viewBox="0 0 58 58" fill="none" xmlns="http://www.w3.org/2000/svg">
<path d="M2.88807 54.806L21.9801 35.714M46.0221 27.224L40.3071 44.369C40.2159 44.6438 40.0597 44.8926 39.8518 45.0942C39.644 45.2958 39.3906 45.4443 39.1131 45.527L4.07907 55.94C3.76344 56.0337 3.42814 56.0391 3.10968 55.9555C2.79121 55.8719 2.50176 55.7026 2.27285 55.466C2.04393 55.2293 1.8843 54.9344 1.81135 54.6133C1.73839 54.2923 1.7549 53.9573 1.85907 53.645L13.2351 19.523C13.3166 19.278 13.4499 19.0534 13.6259 18.8645C13.8019 18.6755 14.0165 18.5267 14.2551 18.428L30.4161 11.774C30.7446 11.6383 31.106 11.6029 31.4546 11.6723C31.8033 11.7417 32.1235 11.9128 32.3751 12.164L45.5871 25.379C45.824 25.6156 45.9903 25.9137 46.0671 26.2396C46.144 26.5655 46.1284 26.9064 46.0221 27.224V27.224Z" stroke="#1A1A1A" stroke-width="2" stroke-linecap="round" stroke-linejoin="round"/>
<path d="M46.376 26.168L54.86 17.681C55.9848 16.5558 56.6167 15.03 56.6167 13.439C56.6167 11.848 55.9848 10.3221 54.86 9.19697L48.5 2.83097C47.9428 2.27356 47.2813 1.83139 46.5532 1.52971C45.8251 1.22803 45.0447 1.07275 44.2565 1.07275C43.4684 1.07275 42.688 1.22803 41.9599 1.52971C41.2317 1.83139 40.5702 2.27356 40.013 2.83097L31.529 11.318M28.343 29.348C27.925 28.9302 27.4288 28.5988 26.8828 28.3728C26.3367 28.1467 25.7515 28.0305 25.1605 28.0306C24.5695 28.0307 23.9843 28.1473 23.4383 28.3736C22.8924 28.5999 22.3963 28.9315 21.9785 29.3495C21.5607 29.7675 21.2293 30.2637 21.0033 30.8097C20.7773 31.3558 20.661 31.941 20.6611 32.532C20.6613 33.123 20.7778 33.7082 21.0041 34.2542C21.2304 34.8001 21.562 35.2962 21.98 35.714C22.8242 36.5578 23.969 37.0316 25.1626 37.0314C26.3562 37.0311 27.5007 36.5567 28.3445 35.7125C29.1883 34.8683 29.6622 33.7235 29.6619 32.5299C29.6616 31.3363 29.1872 30.1918 28.343 29.348Z" stroke="#1A1A1A" stroke-width="2" stroke-linecap="round" stroke-linejoin="round"/>
</svg>
