<svg width="72" height="72" viewBox="0 0 72 72" fill="none" xmlns="http://www.w3.org/2000/svg">
<path d="M0.520066 54.5H12V54V53.5C10.4835 53.5 9.19844 52.9663 8.11755 51.8854C7.03448 50.8024 6.5 49.5162 6.5 48V15C6.5 13.4838 7.03448 12.1976 8.11755 11.1146C9.19844 10.0337 10.4835 9.5 12 9.5H60C61.5162 9.5 62.8023 10.0335 63.8851 11.1143C64.9663 12.1973 65.5 13.4835 65.5 15V48C65.5 49.5163 64.9664 50.8025 63.8854 51.8854C62.8025 52.9664 61.5163 53.5 60 53.5V54V54.5H71.48C71.3739 55.8013 70.8457 56.9233 69.8857 57.8851C68.8027 58.9663 67.5165 59.5 66 59.5H6C4.48354 59.5 3.19844 58.9663 2.11755 57.8854C1.15558 56.9235 0.626381 55.8013 0.520066 54.5ZM11.5 48V48.5H12H60H60.5V48V15V14.5H60H12H11.5V15V48ZM36 57.5C36.9762 57.5 37.8183 57.1638 38.4926 56.4896C39.1651 55.817 39.5 54.9757 39.5 54C39.5 53.0243 39.1651 52.183 38.4926 51.5104C37.8183 50.8362 36.9762 50.5 36 50.5C35.0241 50.5 34.1828 50.8361 33.5104 51.5104C32.8361 52.1828 32.5 53.0241 32.5 54C32.5 54.9759 32.8361 55.8172 33.5104 56.4896C34.1828 57.1639 35.0241 57.5 36 57.5Z" fill="#1A1A1A" fill-opacity="0.8" stroke="#1A1A1A"/>
<path d="M39.7999 30.5357C40.5884 30.5357 41.3447 30.8489 41.9023 31.4065C42.4599 31.9641 42.7731 32.7203 42.7731 33.5089V41.7665C42.7731 43.6944 42.0072 45.5433 40.644 46.9066C39.2808 48.2698 37.4318 49.0357 35.5039 49.0357C33.576 49.0357 31.7271 48.2698 30.3638 46.9066C29.0006 45.5433 28.2348 43.6944 28.2348 41.7665V33.5089C28.2348 32.7203 28.548 31.9641 29.1056 31.4065C29.6632 30.8489 30.4194 30.5357 31.208 30.5357H39.7999ZM39.7999 32.5178H31.208C30.9451 32.5178 30.693 32.6222 30.5072 32.8081C30.3213 32.9939 30.2169 33.246 30.2169 33.5089V41.7665C30.2169 43.1687 30.7739 44.5135 31.7654 45.505C32.7569 46.4965 34.1017 47.0535 35.5039 47.0535C36.9061 47.0535 38.2509 46.4965 39.2424 45.505C40.2339 44.5135 40.791 43.1687 40.791 41.7665V33.5089C40.791 33.246 40.6865 32.9939 40.5007 32.8081C40.3148 32.6222 40.0627 32.5178 39.7999 32.5178ZM22.616 30.5357H28.1079C27.5774 31.088 27.2046 31.7725 27.0283 32.5178H22.616C22.3532 32.5178 22.1011 32.6222 21.9152 32.8081C21.7294 32.9939 21.625 33.246 21.625 33.5089V40.4451C21.6248 41.1081 21.7909 41.7606 22.108 42.3429C22.4251 42.9251 22.8832 43.4186 23.4403 43.7781C23.9974 44.1376 24.6357 44.3517 25.2969 44.4008C25.9581 44.4499 26.6211 44.3325 27.2252 44.0592C27.4009 44.7067 27.6533 45.3224 27.9705 45.8986C27.0651 46.2939 26.0756 46.4574 25.0912 46.3745C24.1068 46.2915 23.1585 45.9647 22.3321 45.4235C21.5057 44.8823 20.827 44.1437 20.3575 43.2746C19.888 42.4054 19.6424 41.4329 19.6428 40.4451V33.5089C19.6428 32.7203 19.9561 31.9641 20.5137 31.4065C21.0712 30.8489 21.8275 30.5357 22.616 30.5357ZM48.3839 30.5357C49.1724 30.5357 49.9287 30.8489 50.4863 31.4065C51.0439 31.9641 51.3571 32.7203 51.3571 33.5089V40.4464C51.3575 41.4337 51.1121 42.4056 50.6429 43.2743C50.1738 44.1431 49.4957 44.8813 48.6699 45.4225C47.8441 45.9636 46.8965 46.2906 45.9127 46.374C44.9289 46.4573 43.9398 46.2944 43.0348 45.8999L43.1087 45.7651C43.3915 45.2286 43.6201 44.6591 43.784 44.0618C44.3878 44.3335 45.0499 44.4496 45.7101 44.3996C46.3703 44.3496 47.0074 44.135 47.5633 43.7755C48.1193 43.416 48.5763 42.923 48.8928 42.3415C49.2092 41.76 49.375 41.1084 49.375 40.4464V33.5089C49.375 33.2463 49.2707 32.9944 49.0852 32.8085C48.8996 32.6227 48.6478 32.5182 48.3852 32.5178H43.9809C43.8043 31.7723 43.431 31.0878 42.9 30.5357H48.3852H48.3839ZM35.5 19.9642C36.1073 19.9642 36.7087 20.0839 37.2699 20.3163C37.831 20.5487 38.3409 20.8894 38.7703 21.3189C39.1998 21.7483 39.5405 22.2582 39.7729 22.8193C40.0053 23.3805 40.125 23.9819 40.125 24.5892C40.125 25.1966 40.0053 25.798 39.7729 26.3591C39.5405 26.9203 39.1998 27.4301 38.7703 27.8596C38.3409 28.2891 37.831 28.6297 37.2699 28.8622C36.7087 29.0946 36.1073 29.2142 35.5 29.2142C34.2733 29.2142 33.097 28.727 32.2296 27.8596C31.3622 26.9922 30.875 25.8159 30.875 24.5892C30.875 23.3626 31.3622 22.1862 32.2296 21.3189C33.097 20.4515 34.2733 19.9642 35.5 19.9642ZM46.0754 21.2857C46.596 21.2857 47.1115 21.3882 47.5924 21.5874C48.0734 21.7866 48.5104 22.0787 48.8785 22.4468C49.2466 22.8149 49.5387 23.2519 49.7379 23.7329C49.9371 24.2139 50.0396 24.7294 50.0396 25.2499C50.0396 25.7705 49.9371 26.286 49.7379 26.767C49.5387 27.248 49.2466 27.685 48.8785 28.0531C48.5104 28.4212 48.0734 28.7132 47.5924 28.9125C47.1115 29.1117 46.596 29.2142 46.0754 29.2142C45.024 29.2142 44.0156 28.7966 43.2722 28.0531C42.5287 27.3097 42.1111 26.3013 42.1111 25.2499C42.1111 24.1986 42.5287 23.1902 43.2722 22.4468C44.0156 21.7033 45.024 21.2857 46.0754 21.2857ZM24.9246 21.2857C25.4452 21.2857 25.9607 21.3882 26.4416 21.5874C26.9226 21.7866 27.3596 22.0787 27.7277 22.4468C28.0959 22.8149 28.3879 23.2519 28.5871 23.7329C28.7863 24.2139 28.8889 24.7294 28.8889 25.2499C28.8889 25.7705 28.7863 26.286 28.5871 26.767C28.3879 27.248 28.0959 27.685 27.7277 28.0531C27.3596 28.4212 26.9226 28.7132 26.4416 28.9125C25.9607 29.1117 25.4452 29.2142 24.9246 29.2142C23.8732 29.2142 22.8648 28.7966 22.1214 28.0531C21.378 27.3097 20.9603 26.3013 20.9603 25.2499C20.9603 24.1986 21.378 23.1902 22.1214 22.4468C22.8648 21.7033 23.8732 21.2857 24.9246 21.2857ZM35.5 21.9464C34.799 21.9464 34.1268 22.2248 33.6312 22.7205C33.1356 23.2161 32.8571 23.8883 32.8571 24.5892C32.8571 25.2902 33.1356 25.9624 33.6312 26.458C34.1268 26.9536 34.799 27.2321 35.5 27.2321C36.2009 27.2321 36.8731 26.9536 37.3687 26.458C37.8644 25.9624 38.1428 25.2902 38.1428 24.5892C38.1428 23.8883 37.8644 23.2161 37.3687 22.7205C36.8731 22.2248 36.2009 21.9464 35.5 21.9464ZM46.0754 23.2678C45.8151 23.2678 45.5573 23.3191 45.3168 23.4187C45.0763 23.5183 44.8578 23.6643 44.6738 23.8484C44.4897 24.0324 44.3437 24.2509 44.2441 24.4914C44.1445 24.7319 44.0932 24.9896 44.0932 25.2499C44.0932 25.5102 44.1445 25.768 44.2441 26.0085C44.3437 26.249 44.4897 26.4675 44.6738 26.6515C44.8578 26.8356 45.0763 26.9816 45.3168 27.0812C45.5573 27.1808 45.8151 27.2321 46.0754 27.2321C46.6011 27.2321 47.1052 27.0233 47.4769 26.6515C47.8487 26.2798 48.0575 25.7756 48.0575 25.2499C48.0575 24.7243 47.8487 24.2201 47.4769 23.8484C47.1052 23.4766 46.6011 23.2678 46.0754 23.2678ZM24.9246 23.2678C24.6643 23.2678 24.4065 23.3191 24.166 23.4187C23.9256 23.5183 23.707 23.6643 23.523 23.8484C23.3389 24.0324 23.1929 24.2509 23.0933 24.4914C22.9937 24.7319 22.9424 24.9896 22.9424 25.2499C22.9424 25.5102 22.9937 25.768 23.0933 26.0085C23.1929 26.249 23.3389 26.4675 23.523 26.6515C23.707 26.8356 23.9256 26.9816 24.166 27.0812C24.4065 27.1808 24.6643 27.2321 24.9246 27.2321C25.4503 27.2321 25.9544 27.0233 26.3262 26.6515C26.6979 26.2798 26.9067 25.7756 26.9067 25.2499C26.9067 24.7243 26.6979 24.2201 26.3262 23.8484C25.9544 23.4766 25.4503 23.2678 24.9246 23.2678Z" fill="#1A1A1A"/>
</svg>
