<svg width="24" height="24" viewBox="0 0 24 24" fill="none" xmlns="http://www.w3.org/2000/svg">
<path d="M23.9369 3.55613C23.8697 3.37715 23.7567 3.22445 23.612 3.11727C23.4674 3.01008 23.2976 2.95321 23.1241 2.95381H19.7851C19.3844 2.17144 18.8282 1.50278 18.1595 0.999629C17.4908 0.496476 16.7276 0.172328 15.929 0.0522895C15.1304 -0.0677492 14.3179 0.0195426 13.5542 0.307405C12.7906 0.595268 12.0964 1.07598 11.5255 1.7123C11.0256 2.25779 10.6282 2.9096 10.3566 3.62942C10.0849 4.34925 9.94463 5.12257 9.94386 5.90394V6.65377C5.47354 5.35079 1.81601 1.31895 1.78306 1.26978C1.66817 1.14328 1.5244 1.05458 1.36749 1.01339C1.21058 0.972198 1.04656 0.980099 0.893394 1.03623C0.740711 1.09061 0.603984 1.19013 0.497653 1.32427C0.391323 1.45841 0.319337 1.62221 0.289298 1.79835C-0.666273 7.72319 0.926345 11.6936 2.43109 13.9799C3.18583 15.136 4.10185 16.1487 5.14404 16.9792C3.46355 19.1058 0.871427 20.2121 0.84946 20.2244C0.725504 20.2758 0.61352 20.3579 0.521851 20.4645C0.430181 20.5711 0.361189 20.6995 0.320016 20.8401C0.278843 20.9807 0.266549 21.1299 0.284052 21.2766C0.301554 21.4232 0.3484 21.5636 0.421101 21.6871C0.508969 21.8346 0.838477 22.314 1.64028 22.7688C2.63978 23.322 3.95781 23.6047 5.55043 23.6047C13.2938 23.6047 19.7742 16.93 20.4332 8.3378L23.7502 4.63784C23.8694 4.49566 23.9502 4.31862 23.9833 4.12719C24.0163 3.93576 24.0002 3.73777 23.9369 3.55613ZM18.9614 7.20691C18.8083 7.37682 18.7181 7.60506 18.7087 7.84611C18.2584 15.5779 12.4811 21.638 5.55043 21.638C4.38617 21.638 3.57339 21.4659 3.00224 21.2569C4.26535 20.4948 6.02272 19.1672 7.16501 17.2619C7.23132 17.1466 7.27535 17.0171 7.29426 16.8816C7.31318 16.7461 7.30657 16.6077 7.27485 16.4752C7.24288 16.3414 7.18631 16.2166 7.10877 16.1086C7.03123 16.0007 6.93442 15.912 6.82452 15.8483C6.81354 15.836 5.18797 14.8895 3.79306 12.7384C2.21142 10.3046 1.54143 7.34213 1.80503 3.9249C3.54044 5.52288 6.85747 8.12883 10.6798 8.84178C10.806 8.86447 10.9351 8.85645 11.0583 8.81826C11.1815 8.78008 11.2959 8.71264 11.3937 8.62052C11.4893 8.52688 11.5661 8.41166 11.6192 8.28243C11.6722 8.1532 11.7001 8.01288 11.7012 7.87069V5.90394C11.7029 5.00169 11.9816 4.1275 12.4907 3.42791C12.9998 2.72833 13.7084 2.24588 14.4976 2.06146C15.2867 1.87704 16.1086 2.00185 16.8253 2.41498C17.542 2.8281 18.11 3.50441 18.4342 4.33054C18.5042 4.50626 18.6183 4.65551 18.7625 4.76022C18.9067 4.86494 19.075 4.92063 19.2469 4.92057H21.0043L18.9614 7.20691Z" fill="white"/>
<path d="M5.1025 17.0313C5.11641 17.014 5.13025 16.9967 5.14404 16.9792C4.10185 16.1487 3.18583 15.136 2.43109 13.9799C0.926345 11.6936 -0.666273 7.72319 0.289298 1.79835C0.319337 1.62221 0.391323 1.45841 0.497653 1.32427C0.603984 1.19013 0.740711 1.09061 0.893394 1.03623L5.1025 17.0313ZM5.1025 17.0313L4.83244 17.3703C4.8291 17.3676 4.82576 17.3649 4.82242 17.3623M23.1241 3.45382L23.1259 3.45381C23.1873 3.45359 23.2528 3.47338 23.3143 3.51898C23.3755 3.56432 23.4311 3.63444 23.4667 3.72641C23.5002 3.82563 23.5089 3.9355 23.4905 4.04214C23.4722 4.14814 23.429 4.24069 23.3714 4.31132L20.0609 8.00403L19.9476 8.13038L19.9346 8.29956C19.2919 16.6793 12.9869 23.1047 5.55043 23.1047C4.01253 23.1047 2.78656 22.8311 1.88459 22.3326C1.17192 21.9278 0.901924 21.5169 0.851362 21.4324C0.815128 21.3704 0.790037 21.297 0.780529 21.2173C0.770959 21.1371 0.777821 21.0559 0.799864 20.9806L0.321545 20.8406L0.799864 20.9806C0.8219 20.9054 0.857646 20.8409 0.900974 20.7905C0.944147 20.7403 0.992889 20.7062 1.04113 20.6862L1.06813 20.675L1.09363 20.6607C1.05815 20.6805 3.77689 19.5157 5.53633 17.2892L5.84508 16.8985L5.45563 16.5882C4.45669 15.7922 3.5764 14.8196 2.84978 13.7066L2.84875 13.705C1.40652 11.5137 -0.150477 7.66927 0.782508 1.88051C0.79925 1.78419 0.837995 1.69982 0.889488 1.63486C0.941045 1.56982 1.00176 1.5284 1.06115 1.50725L1.06116 1.50727L1.06543 1.5057C1.12329 1.4845 1.18298 1.48189 1.24054 1.497L1.36749 1.01339L1.24054 1.497C1.2963 1.51164 1.35444 1.54423 1.40625 1.59875L1.42145 1.61631C1.43199 1.62827 1.44553 1.64334 1.46163 1.66099C1.49404 1.69653 1.53968 1.74563 1.59775 1.80662C1.714 1.92868 1.88163 2.09994 2.09514 2.30726C2.52198 2.7217 3.13423 3.28221 3.88789 3.88266C5.38876 5.07842 7.47982 6.45637 9.80394 7.13379L10.4439 7.32031V6.65377V5.90443C10.4446 5.18223 10.5743 4.46861 10.8244 3.80594C11.0744 3.14329 11.439 2.54678 11.8941 2.05011L11.8941 2.05013L11.8976 2.04622C12.4177 1.46667 13.0456 1.03347 13.7306 0.775266C14.4152 0.517199 15.1415 0.439531 15.8547 0.546735C16.5681 0.65397 17.2541 0.944073 17.8589 1.39916C18.464 1.85449 18.9721 2.46328 19.3401 3.18174L19.4795 3.45381H19.7851L23.1241 3.45382Z" stroke="#1A1A1A" stroke-opacity="0.8"/>
</svg>
