<svg width="62" height="58" viewBox="0 0 62 58" fill="none" xmlns="http://www.w3.org/2000/svg">
<path d="M39.3674 21.2857C40.9019 21.2857 42.3735 21.8952 43.4585 22.9803C44.5435 24.0653 45.1531 25.5369 45.1531 27.0714V43.1402C45.1531 46.8918 43.6628 50.4898 41.01 53.1426C38.3572 55.7953 34.7593 57.2857 31.0077 57.2857C27.2561 57.2857 23.6581 55.7953 21.0054 53.1426C18.3526 50.4898 16.8623 46.8918 16.8623 43.1402V27.0714C16.8623 25.5369 17.4718 24.0653 18.5568 22.9803C19.6419 21.8952 21.1135 21.2857 22.648 21.2857H39.3674ZM39.3674 25.1428H22.648C22.1365 25.1428 21.6459 25.346 21.2843 25.7077C20.9226 26.0693 20.7194 26.5599 20.7194 27.0714V43.1402C20.7194 45.8689 21.8033 48.4857 23.7328 50.4151C25.6622 52.3446 28.2791 53.4285 31.0077 53.4285C33.7363 53.4285 36.3532 52.3446 38.2826 50.4151C40.212 48.4857 41.296 45.8689 41.296 43.1402V27.0714C41.296 26.5599 41.0928 26.0693 40.7311 25.7077C40.3694 25.346 39.8789 25.1428 39.3674 25.1428ZM5.92854 21.2857H16.6154C15.583 22.3605 14.8576 23.6925 14.5145 25.1428H5.92854C5.41705 25.1428 4.92651 25.346 4.56483 25.7077C4.20315 26.0693 3.99997 26.5599 3.99997 27.0714V40.5688C3.99962 41.859 4.32278 43.1287 4.93989 44.2618C5.557 45.3949 6.44836 46.3551 7.53244 47.0548C8.61651 47.7544 9.8587 48.171 11.1454 48.2665C12.4321 48.3621 13.7222 48.1335 14.8977 47.6017C15.2397 48.8617 15.7308 50.0599 16.348 51.1811C14.5862 51.9503 12.6606 52.2686 10.745 52.1071C8.82942 51.9457 6.98421 51.3097 5.37601 50.2566C3.7678 49.2034 2.44724 47.7662 1.53359 46.0749C0.619933 44.3835 0.141958 42.4912 0.142823 40.5688V27.0714C0.142823 25.5369 0.752388 24.0653 1.83742 22.9803C2.92245 21.8952 4.39407 21.2857 5.92854 21.2857ZM56.0714 21.2857C57.6059 21.2857 59.0775 21.8952 60.1625 22.9803C61.2475 24.0653 61.8571 25.5369 61.8571 27.0714V40.5714C61.8579 42.4927 61.3803 44.3839 60.4673 46.0744C59.5544 47.7649 58.2349 49.2015 56.6279 50.2546C55.0209 51.3076 53.177 51.9439 51.2626 52.1061C49.3482 52.2684 47.4235 51.9513 45.6623 51.1837L45.8062 50.9214C46.3565 49.8774 46.8014 48.7691 47.1202 47.6068C48.2951 48.1354 49.5837 48.3614 50.8683 48.2641C52.153 48.1668 53.3928 47.7493 54.4746 47.0497C55.5565 46.3502 56.4459 45.3908 57.0617 44.2592C57.6775 43.1275 58 41.8597 58 40.5714V27.0714C58 26.5603 57.7971 26.0702 57.436 25.7086C57.0749 25.347 56.585 25.1435 56.074 25.1428H47.5034C47.1597 23.6921 46.4334 22.3602 45.4 21.2857H56.074H56.0714ZM31 0.714233C32.1819 0.714233 33.3522 0.947025 34.4441 1.39932C35.536 1.85161 36.5282 2.51455 37.3639 3.35027C38.1997 4.186 38.8626 5.17815 39.3149 6.27008C39.7672 7.36201 40 8.53234 40 9.71423C40 10.8961 39.7672 12.0665 39.3149 13.1584C38.8626 14.2503 38.1997 15.2425 37.3639 16.0782C36.5282 16.9139 35.536 17.5769 34.4441 18.0292C33.3522 18.4814 32.1819 18.7142 31 18.7142C28.613 18.7142 26.3238 17.766 24.636 16.0782C22.9482 14.3904 22 12.1012 22 9.71423C22 7.32728 22.9482 5.0381 24.636 3.35027C26.3238 1.66245 28.613 0.714233 31 0.714233ZM51.5791 3.28566C52.5922 3.28566 53.5953 3.4852 54.5312 3.87288C55.4672 4.26056 56.3176 4.82879 57.0339 5.54512C57.7503 6.26146 58.3185 7.11188 58.7062 8.04782C59.0939 8.98376 59.2934 9.98689 59.2934 10.9999C59.2934 12.013 59.0939 13.0161 58.7062 13.9521C58.3185 14.888 57.7503 15.7384 57.0339 16.4548C56.3176 17.1711 55.4672 17.7393 54.5312 18.127C53.5953 18.5147 52.5922 18.7142 51.5791 18.7142C49.5332 18.7142 47.571 17.9015 46.1243 16.4548C44.6776 15.0081 43.8648 13.0459 43.8648 10.9999C43.8648 8.95399 44.6776 6.99183 46.1243 5.54512C47.571 4.09841 49.5332 3.28566 51.5791 3.28566ZM10.4208 3.28566C11.4339 3.28566 12.437 3.4852 13.373 3.87288C14.3089 4.26056 15.1593 4.82879 15.8756 5.54512C16.592 6.26146 17.1602 7.11188 17.5479 8.04782C17.9356 8.98376 18.1351 9.98689 18.1351 10.9999C18.1351 12.013 17.9356 13.0161 17.5479 13.9521C17.1602 14.888 16.592 15.7384 15.8756 16.4548C15.1593 17.1711 14.3089 17.7393 13.373 18.127C12.437 18.5147 11.4339 18.7142 10.4208 18.7142C8.37487 18.7142 6.41271 17.9015 4.966 16.4548C3.51929 15.0081 2.70654 13.0459 2.70654 10.9999C2.70654 8.95399 3.51929 6.99183 4.966 5.54512C6.41271 4.09841 8.37487 3.28566 10.4208 3.28566ZM31 4.57138C29.636 4.57138 28.3279 5.11321 27.3634 6.07768C26.3989 7.04216 25.8571 8.35026 25.8571 9.71423C25.8571 11.0782 26.3989 12.3863 27.3634 13.3508C28.3279 14.3153 29.636 14.8571 31 14.8571C32.3639 14.8571 33.672 14.3153 34.6365 13.3508C35.601 12.3863 36.1428 11.0782 36.1428 9.71423C36.1428 8.35026 35.601 7.04216 34.6365 6.07768C33.672 5.11321 32.3639 4.57138 31 4.57138ZM51.5791 7.1428C51.0726 7.1428 50.571 7.24257 50.103 7.43641C49.6351 7.63025 49.2099 7.91437 48.8517 8.27254C48.4935 8.6307 48.2094 9.05591 48.0156 9.52388C47.8217 9.99185 47.722 10.4934 47.722 10.9999C47.722 11.5065 47.8217 12.008 48.0156 12.476C48.2094 12.944 48.4935 13.3692 48.8517 13.7274C49.2099 14.0855 49.6351 14.3696 50.103 14.5635C50.571 14.7573 51.0726 14.8571 51.5791 14.8571C52.6021 14.8571 53.5832 14.4507 54.3065 13.7274C55.0299 13.004 55.4363 12.0229 55.4363 10.9999C55.4363 9.97697 55.0299 8.99589 54.3065 8.27254C53.5832 7.54918 52.6021 7.1428 51.5791 7.1428ZM10.4208 7.1428C9.9143 7.1428 9.41273 7.24257 8.94476 7.43641C8.47679 7.63025 8.05158 7.91437 7.69341 8.27254C7.33524 8.6307 7.05113 9.05591 6.85729 9.52388C6.66345 9.99185 6.56368 10.4934 6.56368 10.9999C6.56368 11.5065 6.66345 12.008 6.85729 12.476C7.05113 12.944 7.33524 13.3692 7.69341 13.7274C8.05158 14.0855 8.47679 14.3696 8.94476 14.5635C9.41273 14.7573 9.9143 14.8571 10.4208 14.8571C11.4438 14.8571 12.4249 14.4507 13.1482 13.7274C13.8716 13.004 14.278 12.0229 14.278 10.9999C14.278 9.97697 13.8716 8.99589 13.1482 8.27254C12.4249 7.54918 11.4438 7.1428 10.4208 7.1428Z" fill="#1A1A1A"/>
</svg>
