<svg width="64" height="61" viewBox="0 0 64 61" fill="none" xmlns="http://www.w3.org/2000/svg">
<path d="M11.3293 0.413452L8.16125 3.57695L12.875 8.28845L16.0385 5.12495L11.327 0.413452H11.3293ZM52.673 0.413452L47.9593 5.12495L51.125 8.28845L55.8365 3.5792L52.6707 0.413452H52.673ZM32 1.81745C31.2575 1.82645 30.506 1.8692 29.75 1.96145C29.7275 1.96145 29.705 1.95695 29.6825 1.96145C20.5565 3.0077 13.2935 10.381 12.0312 19.4665C11.0232 26.779 14.0382 33.4097 19.0625 37.6802C21.1177 39.4342 22.5078 41.841 23 44.4977V57.9977H28.13C28.913 59.341 30.3417 60.2477 32 60.2477C33.6582 60.2477 35.087 59.341 35.87 57.9977H41V48.9977H41.2115V46.3247C41.2115 43.0262 42.926 39.7007 45.7115 37.1155C49.4375 33.385 52.25 28.0862 52.25 22C52.25 10.885 43.1015 1.71395 32 1.81745ZM32 6.31745C40.6963 6.19595 47.75 13.315 47.75 22C47.75 26.7115 45.5675 30.8605 42.5457 33.88L42.6177 33.952C39.6148 36.721 37.6731 40.4518 37.1277 44.5H27.2862C26.7913 40.6435 25.1375 36.9107 22.0122 34.2332C18.0365 30.8582 15.6673 25.7732 16.4593 20.0312C17.4425 12.9437 23.1935 7.24445 30.2405 6.4637C30.8223 6.38259 31.4082 6.33451 31.9955 6.3197L32 6.31745ZM0.5 22V26.5H7.25V22H0.5ZM56.75 22V26.5H63.5V22H56.75ZM12.875 40.2115L8.1635 44.9207L11.3293 48.0865L16.0362 43.375L12.875 40.2115ZM51.125 40.2115L47.9615 43.375L52.6707 48.0865L55.8365 44.9207L51.125 40.2115ZM27.5 49H36.5V53.5H27.5V49Z" fill="#1A1A1A"/>
</svg>
