<svg width="20" height="20" viewBox="0 0 20 20" fill="none" xmlns="http://www.w3.org/2000/svg">
<path fill-rule="evenodd" clip-rule="evenodd" d="M7.429 6.969H11.143V8.819C11.678 7.755 13.05 6.799 15.111 6.799C19.062 6.799 20 8.917 20 12.803V20H16V13.688C16 11.475 15.465 10.227 14.103 10.227C12.214 10.227 11.429 11.572 11.429 13.687V20H7.429V6.969ZM0.57 19.83H4.57V6.799H0.57V19.83ZM5.143 2.55C5.14315 2.88528 5.07666 3.21724 4.94739 3.52659C4.81812 3.83594 4.62865 4.11651 4.39 4.352C3.9064 4.83262 3.25181 5.10165 2.57 5.1C1.88939 5.09954 1.23631 4.8312 0.752 4.353C0.514211 4.11671 0.325386 3.83582 0.196344 3.52643C0.0673015 3.21704 0.000579132 2.88522 0 2.55C0 1.873 0.27 1.225 0.753 0.747C1.23689 0.268158 1.89024 -0.000299211 2.571 2.50265e-07C3.253 2.50265e-07 3.907 0.269 4.39 0.747C4.872 1.225 5.143 1.873 5.143 2.55Z" fill="white"/>
<path d="M4.643 2.55022V2.55C4.643 2.00713 4.42583 1.48683 4.03815 1.10224C3.64892 0.717123 3.12143 0.5 2.571 0.5H2.57078C2.0218 0.499759 1.49493 0.716245 1.10471 1.10239L4.643 2.55022ZM4.643 2.55022C4.64312 2.81924 4.58977 3.08559 4.48605 3.33381C4.38232 3.58202 4.2303 3.80715 4.03881 3.99609L4.03754 3.99736M4.643 2.55022L4.03754 3.99736M4.03754 3.99736C3.64792 4.38458 3.12053 4.60133 2.57121 4.6L2.57034 4.6M4.03754 3.99736L2.57034 4.6M2.57034 4.6C2.02139 4.59963 1.49464 4.38331 1.10389 3.99779M2.57034 4.6L1.10389 3.99779M1.10389 3.99779C0.913016 3.80798 0.761435 3.5824 0.657814 3.33396C0.554149 3.08541 0.500522 2.81886 0.5 2.54957C0.500115 2.00631 0.716652 1.48643 1.1047 1.1024L1.10389 3.99779ZM19.5 12.803V19.5H16.5V13.688C16.5 12.5593 16.3667 11.5955 16.0065 10.8982C15.822 10.5409 15.5715 10.2411 15.2397 10.033C14.9066 9.82408 14.5225 9.727 14.103 9.727C13.0246 9.727 12.1929 10.1202 11.6518 10.8718C11.1317 11.5943 10.929 12.5817 10.929 13.687V19.5H7.929V7.469H10.643V8.819L11.5897 9.04361C12.0249 8.17814 13.2033 7.299 15.111 7.299C16.9997 7.299 18.0327 7.80141 18.6309 8.63522C19.2604 9.51266 19.5 10.8718 19.5 12.803ZM4.07 7.299V19.33H1.07V7.299H4.07Z" stroke="#1A1A1A" stroke-opacity="0.8"/>
</svg>
