<svg width="20" height="20" viewBox="0 0 20 20" fill="none" xmlns="http://www.w3.org/2000/svg">
<mask id="path-1-inside-1_196_157" fill="white">
<path d="M5.8 0H14.2C17.4 0 20 2.6 20 5.8V14.2C20 15.7383 19.3889 17.2135 18.3012 18.3012C17.2135 19.3889 15.7383 20 14.2 20H5.8C2.6 20 0 17.4 0 14.2V5.8C0 4.26174 0.61107 2.78649 1.69878 1.69878C2.78649 0.61107 4.26174 0 5.8 0ZM5.6 2C4.64522 2 3.72955 2.37928 3.05442 3.05442C2.37928 3.72955 2 4.64522 2 5.6V14.4C2 16.39 3.61 18 5.6 18H14.4C15.3548 18 16.2705 17.6207 16.9456 16.9456C17.6207 16.2705 18 15.3548 18 14.4V5.6C18 3.61 16.39 2 14.4 2H5.6ZM15.25 3.5C15.5815 3.5 15.8995 3.6317 16.1339 3.86612C16.3683 4.10054 16.5 4.41848 16.5 4.75C16.5 5.08152 16.3683 5.39946 16.1339 5.63388C15.8995 5.8683 15.5815 6 15.25 6C14.9185 6 14.6005 5.8683 14.3661 5.63388C14.1317 5.39946 14 5.08152 14 4.75C14 4.41848 14.1317 4.10054 14.3661 3.86612C14.6005 3.6317 14.9185 3.5 15.25 3.5ZM10 5C11.3261 5 12.5979 5.52678 13.5355 6.46447C14.4732 7.40215 15 8.67392 15 10C15 11.3261 14.4732 12.5979 13.5355 13.5355C12.5979 14.4732 11.3261 15 10 15C8.67392 15 7.40215 14.4732 6.46447 13.5355C5.52678 12.5979 5 11.3261 5 10C5 8.67392 5.52678 7.40215 6.46447 6.46447C7.40215 5.52678 8.67392 5 10 5ZM10 7C9.20435 7 8.44129 7.31607 7.87868 7.87868C7.31607 8.44129 7 9.20435 7 10C7 10.7956 7.31607 11.5587 7.87868 12.1213C8.44129 12.6839 9.20435 13 10 13C10.7956 13 11.5587 12.6839 12.1213 12.1213C12.6839 11.5587 13 10.7956 13 10C13 9.20435 12.6839 8.44129 12.1213 7.87868C11.5587 7.31607 10.7956 7 10 7Z"/>
</mask>
<path d="M5.8 0H14.2C17.4 0 20 2.6 20 5.8V14.2C20 15.7383 19.3889 17.2135 18.3012 18.3012C17.2135 19.3889 15.7383 20 14.2 20H5.8C2.6 20 0 17.4 0 14.2V5.8C0 4.26174 0.61107 2.78649 1.69878 1.69878C2.78649 0.61107 4.26174 0 5.8 0ZM5.6 2C4.64522 2 3.72955 2.37928 3.05442 3.05442C2.37928 3.72955 2 4.64522 2 5.6V14.4C2 16.39 3.61 18 5.6 18H14.4C15.3548 18 16.2705 17.6207 16.9456 16.9456C17.6207 16.2705 18 15.3548 18 14.4V5.6C18 3.61 16.39 2 14.4 2H5.6ZM15.25 3.5C15.5815 3.5 15.8995 3.6317 16.1339 3.86612C16.3683 4.10054 16.5 4.41848 16.5 4.75C16.5 5.08152 16.3683 5.39946 16.1339 5.63388C15.8995 5.8683 15.5815 6 15.25 6C14.9185 6 14.6005 5.8683 14.3661 5.63388C14.1317 5.39946 14 5.08152 14 4.75C14 4.41848 14.1317 4.10054 14.3661 3.86612C14.6005 3.6317 14.9185 3.5 15.25 3.5ZM10 5C11.3261 5 12.5979 5.52678 13.5355 6.46447C14.4732 7.40215 15 8.67392 15 10C15 11.3261 14.4732 12.5979 13.5355 13.5355C12.5979 14.4732 11.3261 15 10 15C8.67392 15 7.40215 14.4732 6.46447 13.5355C5.52678 12.5979 5 11.3261 5 10C5 8.67392 5.52678 7.40215 6.46447 6.46447C7.40215 5.52678 8.67392 5 10 5ZM10 7C9.20435 7 8.44129 7.31607 7.87868 7.87868C7.31607 8.44129 7 9.20435 7 10C7 10.7956 7.31607 11.5587 7.87868 12.1213C8.44129 12.6839 9.20435 13 10 13C10.7956 13 11.5587 12.6839 12.1213 12.1213C12.6839 11.5587 13 10.7956 13 10C13 9.20435 12.6839 8.44129 12.1213 7.87868C11.5587 7.31607 10.7956 7 10 7Z" fill="white"/>
<path d="M20 14.2H21H20ZM0 5.8H-1H0ZM5.6 2V1V2ZM2 5.6H1H2ZM15 10H14H15ZM10 15V14V15ZM5.8 1H14.2V-1H5.8V1ZM14.2 1C16.8477 1 19 3.15228 19 5.8H21C21 2.04772 17.9523 -1 14.2 -1V1ZM19 5.8V14.2H21V5.8H19ZM19 14.2C19 15.473 18.4943 16.6939 17.5941 17.5941L19.0083 19.0083C20.2836 17.7331 21 16.0035 21 14.2H19ZM17.5941 17.5941C16.6939 18.4943 15.473 19 14.2 19V21C16.0035 21 17.7331 20.2836 19.0083 19.0083L17.5941 17.5941ZM14.2 19H5.8V21H14.2V19ZM5.8 19C3.15228 19 1 16.8477 1 14.2H-1C-1 17.9523 2.04772 21 5.8 21V19ZM1 14.2V5.8H-1V14.2H1ZM1 5.8C1 4.52696 1.50571 3.30606 2.40589 2.40589L0.991674 0.991674C-0.283573 2.26692 -1 3.99653 -1 5.8H1ZM2.40589 2.40589C3.30606 1.50571 4.52696 1 5.8 1V-1C3.99653 -1 2.26692 -0.283573 0.991674 0.991674L2.40589 2.40589ZM5.6 1C4.38 1 3.20998 1.48464 2.34731 2.34731L3.76152 3.76152C4.24912 3.27393 4.91044 3 5.6 3V1ZM2.34731 2.34731C1.48464 3.20998 1 4.38 1 5.6H3C3 4.91044 3.27393 4.24912 3.76152 3.76152L2.34731 2.34731ZM1 5.6V14.4H3V5.6H1ZM1 14.4C1 16.9423 3.05771 19 5.6 19V17C4.16228 17 3 15.8377 3 14.4H1ZM5.6 19H14.4V17H5.6V19ZM14.4 19C15.62 19 16.79 18.5154 17.6527 17.6527L16.2385 16.2385C15.7509 16.7261 15.0896 17 14.4 17V19ZM17.6527 17.6527C18.5154 16.79 19 15.62 19 14.4H17C17 15.0896 16.7261 15.7509 16.2385 16.2385L17.6527 17.6527ZM19 14.4V5.6H17V14.4H19ZM19 5.6C19 3.05771 16.9423 1 14.4 1V3C15.8377 3 17 4.16228 17 5.6H19ZM14.4 1H5.6V3H14.4V1ZM15.25 4.5C15.3163 4.5 15.3799 4.52634 15.4268 4.57322L16.841 3.15901C16.419 2.73705 15.8467 2.5 15.25 2.5V4.5ZM15.4268 4.57322C15.4737 4.62011 15.5 4.68369 15.5 4.75H17.5C17.5 4.15326 17.2629 3.58097 16.841 3.15901L15.4268 4.57322ZM15.5 4.75C15.5 4.81631 15.4737 4.87989 15.4268 4.92678L16.841 6.34099C17.2629 5.91903 17.5 5.34674 17.5 4.75H15.5ZM15.4268 4.92678C15.3799 4.97366 15.3163 5 15.25 5V7C15.8467 7 16.419 6.76295 16.841 6.34099L15.4268 4.92678ZM15.25 5C15.1837 5 15.1201 4.97366 15.0732 4.92678L13.659 6.34099C14.081 6.76295 14.6533 7 15.25 7V5ZM15.0732 4.92678C15.0263 4.87989 15 4.81631 15 4.75H13C13 5.34674 13.2371 5.91903 13.659 6.34099L15.0732 4.92678ZM15 4.75C15 4.68369 15.0263 4.62011 15.0732 4.57322L13.659 3.15901C13.2371 3.58097 13 4.15326 13 4.75H15ZM15.0732 4.57322C15.1201 4.52634 15.1837 4.5 15.25 4.5V2.5C14.6533 2.5 14.081 2.73705 13.659 3.15901L15.0732 4.57322ZM10 6C11.0609 6 12.0783 6.42143 12.8284 7.17157L14.2426 5.75736C13.1174 4.63214 11.5913 4 10 4V6ZM12.8284 7.17157C13.5786 7.92172 14 8.93913 14 10H16C16 8.4087 15.3679 6.88258 14.2426 5.75736L12.8284 7.17157ZM14 10C14 11.0609 13.5786 12.0783 12.8284 12.8284L14.2426 14.2426C15.3679 13.1174 16 11.5913 16 10H14ZM12.8284 12.8284C12.0783 13.5786 11.0609 14 10 14V16C11.5913 16 13.1174 15.3679 14.2426 14.2426L12.8284 12.8284ZM10 14C8.93913 14 7.92172 13.5786 7.17157 12.8284L5.75736 14.2426C6.88258 15.3679 8.4087 16 10 16V14ZM7.17157 12.8284C6.42143 12.0783 6 11.0609 6 10H4C4 11.5913 4.63214 13.1174 5.75736 14.2426L7.17157 12.8284ZM6 10C6 8.93913 6.42143 7.92172 7.17157 7.17157L5.75736 5.75736C4.63214 6.88258 4 8.4087 4 10H6ZM7.17157 7.17157C7.92172 6.42143 8.93913 6 10 6V4C8.4087 4 6.88258 4.63214 5.75736 5.75736L7.17157 7.17157ZM10 6C8.93913 6 7.92172 6.42143 7.17157 7.17157L8.58579 8.58579C8.96086 8.21071 9.46957 8 10 8V6ZM7.17157 7.17157C6.42143 7.92172 6 8.93913 6 10H8C8 9.46957 8.21071 8.96086 8.58579 8.58579L7.17157 7.17157ZM6 10C6 11.0609 6.42143 12.0783 7.17157 12.8284L8.58579 11.4142C8.21071 11.0391 8 10.5304 8 10H6ZM7.17157 12.8284C7.92172 13.5786 8.93913 14 10 14V12C9.46957 12 8.96086 11.7893 8.58579 11.4142L7.17157 12.8284ZM10 14C11.0609 14 12.0783 13.5786 12.8284 12.8284L11.4142 11.4142C11.0391 11.7893 10.5304 12 10 12V14ZM12.8284 12.8284C13.5786 12.0783 14 11.0609 14 10H12C12 10.5304 11.7893 11.0391 11.4142 11.4142L12.8284 12.8284ZM14 10C14 8.93913 13.5786 7.92172 12.8284 7.17157L11.4142 8.58579C11.7893 8.96086 12 9.46957 12 10H14ZM12.8284 7.17157C12.0783 6.42143 11.0609 6 10 6V8C10.5304 8 11.0391 8.21071 11.4142 8.58579L12.8284 7.17157Z" fill="#1A1A1A" fill-opacity="0.8" mask="url(#path-1-inside-1_196_157)"/>
</svg>
